<mxfile host="app.diagrams.net" modified="2022-11-09T07:35:08.269Z" agent="5.0 (Windows NT 10.0; Win64; x64) AppleWebKit/537.36 (KHTML, like Gecko) Chrome/107.0.0.0 Safari/537.36" etag="F1njZ50HZET_SCmWWG-s" version="20.5.3" type="github">
  <diagram id="892sodERZgvS5ch3GcTH" name="Страница 1">
    <mxGraphModel dx="1422" dy="1963" grid="1" gridSize="10" guides="1" tooltips="1" connect="1" arrows="1" fold="1" page="1" pageScale="1" pageWidth="827" pageHeight="1169" math="0" shadow="0">
      <root>
        <mxCell id="0" />
        <mxCell id="1" parent="0" />
        <mxCell id="Xirezer4HCwD1WntG53T-5" value="Социальная сеть" style="whiteSpace=wrap;html=1;align=center;" parent="1" vertex="1">
          <mxGeometry x="354" y="-120" width="120" height="40" as="geometry" />
        </mxCell>
        <mxCell id="Xirezer4HCwD1WntG53T-6" value="Сообщения" style="swimlane;fontStyle=0;childLayout=stackLayout;horizontal=1;startSize=26;horizontalStack=0;resizeParent=1;resizeParentMax=0;resizeLast=0;collapsible=1;marginBottom=0;align=center;fontSize=14;" parent="1" vertex="1">
          <mxGeometry y="360" width="160" height="146" as="geometry" />
        </mxCell>
        <mxCell id="Xirezer4HCwD1WntG53T-7" value="от кого" style="text;strokeColor=none;fillColor=none;spacingLeft=4;spacingRight=4;overflow=hidden;rotatable=0;points=[[0,0.5],[1,0.5]];portConstraint=eastwest;fontSize=12;" parent="Xirezer4HCwD1WntG53T-6" vertex="1">
          <mxGeometry y="26" width="160" height="30" as="geometry" />
        </mxCell>
        <mxCell id="Xirezer4HCwD1WntG53T-9" value="кому" style="text;strokeColor=none;fillColor=none;spacingLeft=4;spacingRight=4;overflow=hidden;rotatable=0;points=[[0,0.5],[1,0.5]];portConstraint=eastwest;fontSize=12;" parent="Xirezer4HCwD1WntG53T-6" vertex="1">
          <mxGeometry y="56" width="160" height="30" as="geometry" />
        </mxCell>
        <mxCell id="Xirezer4HCwD1WntG53T-10" value="время отправки" style="text;strokeColor=none;fillColor=none;spacingLeft=4;spacingRight=4;overflow=hidden;rotatable=0;points=[[0,0.5],[1,0.5]];portConstraint=eastwest;fontSize=12;" parent="Xirezer4HCwD1WntG53T-6" vertex="1">
          <mxGeometry y="86" width="160" height="30" as="geometry" />
        </mxCell>
        <mxCell id="Xirezer4HCwD1WntG53T-57" value="текст" style="text;strokeColor=none;fillColor=none;spacingLeft=4;spacingRight=4;overflow=hidden;rotatable=0;points=[[0,0.5],[1,0.5]];portConstraint=eastwest;fontSize=12;" parent="Xirezer4HCwD1WntG53T-6" vertex="1">
          <mxGeometry y="116" width="160" height="30" as="geometry" />
        </mxCell>
        <mxCell id="Xirezer4HCwD1WntG53T-11" value="Пользователь" style="swimlane;fontStyle=0;childLayout=stackLayout;horizontal=1;startSize=26;horizontalStack=0;resizeParent=1;resizeParentMax=0;resizeLast=0;collapsible=1;marginBottom=0;align=center;fontSize=14;" parent="1" vertex="1">
          <mxGeometry x="280" y="160" width="200" height="146" as="geometry" />
        </mxCell>
        <mxCell id="Xirezer4HCwD1WntG53T-12" value="Персональный айди" style="text;strokeColor=none;fillColor=none;spacingLeft=4;spacingRight=4;overflow=hidden;rotatable=0;points=[[0,0.5],[1,0.5]];portConstraint=eastwest;fontSize=12;" parent="Xirezer4HCwD1WntG53T-11" vertex="1">
          <mxGeometry y="26" width="200" height="30" as="geometry" />
        </mxCell>
        <mxCell id="Xirezer4HCwD1WntG53T-13" value="почта" style="text;strokeColor=none;fillColor=none;spacingLeft=4;spacingRight=4;overflow=hidden;rotatable=0;points=[[0,0.5],[1,0.5]];portConstraint=eastwest;fontSize=12;" parent="Xirezer4HCwD1WntG53T-11" vertex="1">
          <mxGeometry y="56" width="200" height="30" as="geometry" />
        </mxCell>
        <mxCell id="Xirezer4HCwD1WntG53T-14" value="логин" style="text;strokeColor=none;fillColor=none;spacingLeft=4;spacingRight=4;overflow=hidden;rotatable=0;points=[[0,0.5],[1,0.5]];portConstraint=eastwest;fontSize=12;" parent="Xirezer4HCwD1WntG53T-11" vertex="1">
          <mxGeometry y="86" width="200" height="30" as="geometry" />
        </mxCell>
        <mxCell id="Xirezer4HCwD1WntG53T-15" value="пароль" style="text;strokeColor=none;fillColor=none;spacingLeft=4;spacingRight=4;overflow=hidden;rotatable=0;points=[[0,0.5],[1,0.5]];portConstraint=eastwest;fontSize=12;" parent="Xirezer4HCwD1WntG53T-11" vertex="1">
          <mxGeometry y="116" width="200" height="30" as="geometry" />
        </mxCell>
        <mxCell id="Xirezer4HCwD1WntG53T-16" value="Диалоги" style="swimlane;fontStyle=0;childLayout=stackLayout;horizontal=1;startSize=26;horizontalStack=0;resizeParent=1;resizeParentMax=0;resizeLast=0;collapsible=1;marginBottom=0;align=center;fontSize=14;" parent="1" vertex="1">
          <mxGeometry y="160" width="160" height="116" as="geometry" />
        </mxCell>
        <mxCell id="Xirezer4HCwD1WntG53T-55" value="время создания" style="text;strokeColor=none;fillColor=none;spacingLeft=4;spacingRight=4;overflow=hidden;rotatable=0;points=[[0,0.5],[1,0.5]];portConstraint=eastwest;fontSize=12;" parent="Xirezer4HCwD1WntG53T-16" vertex="1">
          <mxGeometry y="26" width="160" height="30" as="geometry" />
        </mxCell>
        <mxCell id="Xirezer4HCwD1WntG53T-56" value="Айди чата" style="text;strokeColor=none;fillColor=none;spacingLeft=4;spacingRight=4;overflow=hidden;rotatable=0;points=[[0,0.5],[1,0.5]];portConstraint=eastwest;fontSize=12;" parent="Xirezer4HCwD1WntG53T-16" vertex="1">
          <mxGeometry y="56" width="160" height="30" as="geometry" />
        </mxCell>
        <mxCell id="GbVH4vLNhWq1VfWrqkJQ-3" value="Айди пользователя" style="text;strokeColor=none;fillColor=none;spacingLeft=4;spacingRight=4;overflow=hidden;rotatable=0;points=[[0,0.5],[1,0.5]];portConstraint=eastwest;fontSize=12;" vertex="1" parent="Xirezer4HCwD1WntG53T-16">
          <mxGeometry y="86" width="160" height="30" as="geometry" />
        </mxCell>
        <mxCell id="Xirezer4HCwD1WntG53T-30" style="edgeStyle=none;rounded=0;orthogonalLoop=1;jettySize=auto;html=1;entryX=0.5;entryY=0;entryDx=0;entryDy=0;exitX=0.563;exitY=1.067;exitDx=0;exitDy=0;exitPerimeter=0;" parent="1" target="Xirezer4HCwD1WntG53T-6" edge="1" source="GbVH4vLNhWq1VfWrqkJQ-3">
          <mxGeometry relative="1" as="geometry">
            <mxPoint x="80" y="280" as="sourcePoint" />
          </mxGeometry>
        </mxCell>
        <mxCell id="Xirezer4HCwD1WntG53T-51" value="Медиа" style="swimlane;fontStyle=0;childLayout=stackLayout;horizontal=1;startSize=26;horizontalStack=0;resizeParent=1;resizeParentMax=0;resizeLast=0;collapsible=1;marginBottom=0;align=center;fontSize=14;" parent="1" vertex="1">
          <mxGeometry x="720" y="230" width="160" height="176" as="geometry" />
        </mxCell>
        <mxCell id="Xirezer4HCwD1WntG53T-52" value="Фото Айди" style="text;strokeColor=none;fillColor=none;spacingLeft=4;spacingRight=4;overflow=hidden;rotatable=0;points=[[0,0.5],[1,0.5]];portConstraint=eastwest;fontSize=12;" parent="Xirezer4HCwD1WntG53T-51" vertex="1">
          <mxGeometry y="26" width="160" height="30" as="geometry" />
        </mxCell>
        <mxCell id="Xirezer4HCwD1WntG53T-53" value="Видео Айди" style="text;strokeColor=none;fillColor=none;spacingLeft=4;spacingRight=4;overflow=hidden;rotatable=0;points=[[0,0.5],[1,0.5]];portConstraint=eastwest;fontSize=12;" parent="Xirezer4HCwD1WntG53T-51" vertex="1">
          <mxGeometry y="56" width="160" height="30" as="geometry" />
        </mxCell>
        <mxCell id="Xirezer4HCwD1WntG53T-59" value="Альбомы" style="text;strokeColor=none;fillColor=none;spacingLeft=4;spacingRight=4;overflow=hidden;rotatable=0;points=[[0,0.5],[1,0.5]];portConstraint=eastwest;fontSize=12;" parent="Xirezer4HCwD1WntG53T-51" vertex="1">
          <mxGeometry y="86" width="160" height="30" as="geometry" />
        </mxCell>
        <mxCell id="Xirezer4HCwD1WntG53T-54" value="Гиф" style="text;strokeColor=none;fillColor=none;spacingLeft=4;spacingRight=4;overflow=hidden;rotatable=0;points=[[0,0.5],[1,0.5]];portConstraint=eastwest;fontSize=12;" parent="Xirezer4HCwD1WntG53T-51" vertex="1">
          <mxGeometry y="116" width="160" height="30" as="geometry" />
        </mxCell>
        <mxCell id="Xirezer4HCwD1WntG53T-58" value="Музыка" style="text;strokeColor=none;fillColor=none;spacingLeft=4;spacingRight=4;overflow=hidden;rotatable=0;points=[[0,0.5],[1,0.5]];portConstraint=eastwest;fontSize=12;" parent="Xirezer4HCwD1WntG53T-51" vertex="1">
          <mxGeometry y="146" width="160" height="30" as="geometry" />
        </mxCell>
        <mxCell id="GbVH4vLNhWq1VfWrqkJQ-2" style="edgeStyle=orthogonalEdgeStyle;rounded=0;orthogonalLoop=1;jettySize=auto;html=1;" edge="1" parent="1" source="Xirezer4HCwD1WntG53T-86" target="Xirezer4HCwD1WntG53T-11">
          <mxGeometry relative="1" as="geometry" />
        </mxCell>
        <mxCell id="Xirezer4HCwD1WntG53T-86" value="Друзья" style="swimlane;fontStyle=0;childLayout=stackLayout;horizontal=1;startSize=26;horizontalStack=0;resizeParent=1;resizeParentMax=0;resizeLast=0;collapsible=1;marginBottom=0;align=center;fontSize=14;" parent="1" vertex="1">
          <mxGeometry width="160" height="116" as="geometry" />
        </mxCell>
        <mxCell id="Xirezer4HCwD1WntG53T-87" value="Айди юзера 1" style="text;strokeColor=none;fillColor=none;spacingLeft=4;spacingRight=4;overflow=hidden;rotatable=0;points=[[0,0.5],[1,0.5]];portConstraint=eastwest;fontSize=12;" parent="Xirezer4HCwD1WntG53T-86" vertex="1">
          <mxGeometry y="26" width="160" height="30" as="geometry" />
        </mxCell>
        <mxCell id="Xirezer4HCwD1WntG53T-88" value="Айди юзера 2" style="text;strokeColor=none;fillColor=none;spacingLeft=4;spacingRight=4;overflow=hidden;rotatable=0;points=[[0,0.5],[1,0.5]];portConstraint=eastwest;fontSize=12;" parent="Xirezer4HCwD1WntG53T-86" vertex="1">
          <mxGeometry y="56" width="160" height="30" as="geometry" />
        </mxCell>
        <mxCell id="Xirezer4HCwD1WntG53T-89" value="Время добавления" style="text;strokeColor=none;fillColor=none;spacingLeft=4;spacingRight=4;overflow=hidden;rotatable=0;points=[[0,0.5],[1,0.5]];portConstraint=eastwest;fontSize=12;" parent="Xirezer4HCwD1WntG53T-86" vertex="1">
          <mxGeometry y="86" width="160" height="30" as="geometry" />
        </mxCell>
        <mxCell id="Xirezer4HCwD1WntG53T-101" value="Социальная сеть" style="html=1;fillColor=#e1d5e7;strokeColor=#9673a6;" parent="1" vertex="1">
          <mxGeometry y="-1169" width="120" height="50" as="geometry" />
        </mxCell>
        <mxCell id="Xirezer4HCwD1WntG53T-102" value="альбом&lt;span style=&quot;color: rgba(0, 0, 0, 0); font-family: monospace; font-size: 0px; text-align: start;&quot;&gt;%3CmxGraphModel%3E%3Croot%3E%3CmxCell%20id%3D%220%22%2F%3E%3CmxCell%20id%3D%221%22%20parent%3D%220%22%2F%3E%3CmxCell%20id%3D%222%22%20value%3D%22Object%22%20style%3D%22html%3D1%3B%22%20vertex%3D%221%22%20parent%3D%221%22%3E%3CmxGeometry%20x%3D%22160%22%20y%3D%22-1090%22%20width%3D%22110%22%20height%3D%2250%22%20as%3D%22geometry%22%2F%3E%3C%2FmxCell%3E%3C%2Froot%3E%3C%2FmxGraphModel%3E&lt;/span&gt;" style="html=1;" parent="1" vertex="1">
          <mxGeometry x="160" y="-1090" width="110" height="50" as="geometry" />
        </mxCell>
        <mxCell id="Xirezer4HCwD1WntG53T-103" value="Пользователь" style="html=1;" parent="1" vertex="1">
          <mxGeometry x="160" y="-1169" width="110" height="50" as="geometry" />
        </mxCell>
        <mxCell id="Xirezer4HCwD1WntG53T-104" value="фото" style="html=1;" parent="1" vertex="1">
          <mxGeometry y="-1090" width="110" height="50" as="geometry" />
        </mxCell>
        <mxCell id="Xirezer4HCwD1WntG53T-105" value="музыка" style="html=1;" parent="1" vertex="1">
          <mxGeometry x="320" y="-1090" width="110" height="50" as="geometry" />
        </mxCell>
        <mxCell id="Xirezer4HCwD1WntG53T-106" value="Друзья" style="html=1;" parent="1" vertex="1">
          <mxGeometry x="450" y="-1169" width="110" height="50" as="geometry" />
        </mxCell>
        <mxCell id="Xirezer4HCwD1WntG53T-107" value="Медиа" style="html=1;" parent="1" vertex="1">
          <mxGeometry x="320" y="-1169" width="110" height="50" as="geometry" />
        </mxCell>
        <mxCell id="Xirezer4HCwD1WntG53T-108" value="гиф" style="html=1;" parent="1" vertex="1">
          <mxGeometry x="620" y="-1090" width="110" height="50" as="geometry" />
        </mxCell>
        <mxCell id="Xirezer4HCwD1WntG53T-109" value="видео" style="html=1;" parent="1" vertex="1">
          <mxGeometry x="480" y="-1090" width="110" height="50" as="geometry" />
        </mxCell>
        <mxCell id="Xirezer4HCwD1WntG53T-110" value="Сообщения" style="html=1;" parent="1" vertex="1">
          <mxGeometry x="760" y="-1090" width="110" height="50" as="geometry" />
        </mxCell>
        <mxCell id="Xirezer4HCwD1WntG53T-111" value="Диалоги" style="html=1;" parent="1" vertex="1">
          <mxGeometry x="590" y="-1169" width="110" height="50" as="geometry" />
        </mxCell>
        <mxCell id="Xirezer4HCwD1WntG53T-139" style="edgeStyle=orthogonalEdgeStyle;rounded=0;orthogonalLoop=1;jettySize=auto;html=1;entryX=0.5;entryY=0;entryDx=0;entryDy=0;exitX=1.01;exitY=0.062;exitDx=0;exitDy=0;exitPerimeter=0;" parent="1" source="Xirezer4HCwD1WntG53T-11" target="Xirezer4HCwD1WntG53T-51" edge="1">
          <mxGeometry relative="1" as="geometry" />
        </mxCell>
        <mxCell id="GbVH4vLNhWq1VfWrqkJQ-4" style="edgeStyle=orthogonalEdgeStyle;rounded=0;orthogonalLoop=1;jettySize=auto;html=1;entryX=0.2;entryY=0;entryDx=0;entryDy=0;entryPerimeter=0;exitX=0.75;exitY=0;exitDx=0;exitDy=0;" edge="1" parent="1" source="Xirezer4HCwD1WntG53T-16" target="Xirezer4HCwD1WntG53T-11">
          <mxGeometry relative="1" as="geometry" />
        </mxCell>
        <mxCell id="GbVH4vLNhWq1VfWrqkJQ-5" style="edgeStyle=orthogonalEdgeStyle;rounded=0;orthogonalLoop=1;jettySize=auto;html=1;entryX=0.005;entryY=0.068;entryDx=0;entryDy=0;entryPerimeter=0;" edge="1" parent="1" source="Xirezer4HCwD1WntG53T-9" target="Xirezer4HCwD1WntG53T-11">
          <mxGeometry relative="1" as="geometry" />
        </mxCell>
      </root>
    </mxGraphModel>
  </diagram>
</mxfile>
